<?xml version="1.0" encoding="UTF-8" standalone="no"?>
<svg
   xmlns:dc="http://purl.org/dc/elements/1.1/"
   xmlns:cc="http://creativecommons.org/ns#"
   xmlns:rdf="http://www.w3.org/1999/02/22-rdf-syntax-ns#"
   xmlns:svg="http://www.w3.org/2000/svg"
   xmlns="http://www.w3.org/2000/svg"
   xmlns:xlink="http://www.w3.org/1999/xlink"
   xmlns:sodipodi="http://sodipodi.sourceforge.net/DTD/sodipodi-0.dtd"
   xmlns:inkscape="http://www.inkscape.org/namespaces/inkscape"
   style="overflow:visible"
   version="1.1"
   id="Layer_1"
   width="593.0556"
   height="185.92555"
   viewBox="0 0 555.98965 174.3052"
   overflow="visible"
   enable-background="new 0 0 517 500"
   xml:space="preserve"
   inkscape:version="0.92.2 (5c3e80d, 2017-08-06)"
   sodipodi:docname="logo.svg"
   inkscape:export-filename="/home/stefan/projects/faber/doc/_static/logo2.png"
   inkscape:export-xdpi="139.97701"
   inkscape:export-ydpi="139.97701"><metadata
     id="metadata3335"><rdf:RDF><cc:Work
         rdf:about=""><dc:format>image/svg+xml</dc:format><dc:type
           rdf:resource="http://purl.org/dc/dcmitype/StillImage" /><dc:title></dc:title></cc:Work></rdf:RDF></metadata><defs
     id="defs3333"><radialGradient
       id="XMLID_5_-6"
       cx="63.75"
       cy="246.375"
       r="58.375"
       gradientUnits="userSpaceOnUse"><stop
         offset="0"
         style="stop-color:#000000"
         id="stop6" /><stop
         offset="0.0641"
         style="stop-color:#191919"
         id="stop8" /><stop
         offset="0.2539"
         style="stop-color:#5E5E5E"
         id="stop10" /><stop
         offset="0.4336"
         style="stop-color:#979797"
         id="stop12" /><stop
         offset="0.5979"
         style="stop-color:#C4C4C4"
         id="stop14" /><stop
         offset="0.7439"
         style="stop-color:#E4E4E4"
         id="stop16" /><stop
         offset="0.866"
         style="stop-color:#F8F8F8"
         id="stop18" /><stop
         offset="0.9494"
         style="stop-color:#FFF"
         id="stop20" /></radialGradient><linearGradient
       y2="262.375"
       x2="72.826698"
       y1="262.375"
       x1="28.6553"
       gradientUnits="userSpaceOnUse"
       id="linearGradient4147"><stop
         id="stop28"
         stop-color="#8AACD6"
         offset="0" /><stop
         id="stop30"
         stop-color="#A7C7E6"
         offset="1" /></linearGradient><linearGradient
       y2="242.22659"
       x2="110.314"
       y1="242.22659"
       x1="66.6689"
       gradientUnits="userSpaceOnUse"
       id="linearGradient4151"><stop
         id="stop38"
         stop-color="#B1D2EC"
         offset="0.0056" /><stop
         id="stop40"
         stop-color="#C8E6F6"
         offset="1" /></linearGradient><linearGradient
       y2="222.79201"
       x2="78.625504"
       y1="222.79201"
       x1="39.3022"
       gradientUnits="userSpaceOnUse"
       id="linearGradient4155"><stop
         id="stop48"
         stop-color="#B1D2EC"
         offset="0.0056" /><stop
         id="stop50"
         stop-color="#C8E6F6"
         offset="1" /></linearGradient><linearGradient
       id="linearGradient2254"><stop
         id="stop2256"
         style="stop-color:#bedcdc"
         offset="0" /><stop
         id="stop2264"
         style="stop-color:#8e9e9e;stop-opacity:.74150"
         offset=".5" /><stop
         id="stop2258"
         style="stop-color:#404f5c;stop-opacity:.83922"
         offset="1" /></linearGradient><radialGradient
       id="XMLID_5_-6-2"
       cx="63.75"
       cy="246.375"
       r="58.375"
       gradientUnits="userSpaceOnUse"><stop
         offset="0"
         style="stop-color:#000000"
         id="stop6-0" /><stop
         offset="0.0641"
         style="stop-color:#191919"
         id="stop8-2" /><stop
         offset="0.2539"
         style="stop-color:#5E5E5E"
         id="stop10-3" /><stop
         offset="0.4336"
         style="stop-color:#979797"
         id="stop12-7" /><stop
         offset="0.5979"
         style="stop-color:#C4C4C4"
         id="stop14-5" /><stop
         offset="0.7439"
         style="stop-color:#E4E4E4"
         id="stop16-9" /><stop
         offset="0.866"
         style="stop-color:#F8F8F8"
         id="stop18-2" /><stop
         offset="0.9494"
         style="stop-color:#FFF"
         id="stop20-2" /></radialGradient><radialGradient
       id="XMLID_5_-6-6"
       cx="63.75"
       cy="246.375"
       r="58.375"
       gradientUnits="userSpaceOnUse"><stop
         offset="0"
         style="stop-color:#000000"
         id="stop6-7" /><stop
         offset="0.0641"
         style="stop-color:#191919"
         id="stop8-3" /><stop
         offset="0.2539"
         style="stop-color:#5E5E5E"
         id="stop10-6" /><stop
         offset="0.4336"
         style="stop-color:#979797"
         id="stop12-5" /><stop
         offset="0.5979"
         style="stop-color:#C4C4C4"
         id="stop14-6" /><stop
         offset="0.7439"
         style="stop-color:#E4E4E4"
         id="stop16-3" /><stop
         offset="0.866"
         style="stop-color:#F8F8F8"
         id="stop18-9" /><stop
         offset="0.9494"
         style="stop-color:#FFF"
         id="stop20-4" /></radialGradient><linearGradient
       inkscape:collect="always"
       xlink:href="#linearGradient4147"
       id="linearGradient4213"
       gradientUnits="userSpaceOnUse"
       x1="28.6553"
       y1="262.375"
       x2="72.826698"
       y2="262.375" /><linearGradient
       inkscape:collect="always"
       xlink:href="#linearGradient4151"
       id="linearGradient4215"
       gradientUnits="userSpaceOnUse"
       x1="66.6689"
       y1="242.22659"
       x2="110.314"
       y2="242.22659" /><linearGradient
       inkscape:collect="always"
       xlink:href="#linearGradient4155"
       id="linearGradient4217"
       gradientUnits="userSpaceOnUse"
       x1="39.3022"
       y1="222.79201"
       x2="78.625504"
       y2="222.79201"
       gradientTransform="matrix(1.4929782,0,0,1.4929782,-8.0247578,-281.62883)" /><radialGradient
       id="radialGradient3406"
       xlink:href="#linearGradient2254"
       gradientUnits="userSpaceOnUse"
       cy="389.51001"
       cx="380"
       gradientTransform="matrix(0.086859,-0.58077,0.6221,0.093576,261.99,772.78)"
       r="148.86"
       inkscape:collect="always" /><filter
       id="filter3340"
       inkscape:collect="always"><feGaussianBlur
         id="feGaussianBlur3342"
         stdDeviation="3.9590909"
         inkscape:collect="always" /></filter><radialGradient
       id="radialGradient2340"
       xlink:href="#linearGradient2254"
       gradientUnits="userSpaceOnUse"
       cy="389.51001"
       cx="380"
       gradientTransform="matrix(-0.0137284,-0.12105489,0.12921234,-0.01465299,21.500333,162.44671)"
       r="148.86"
       inkscape:collect="always" /><filter
       id="filter3340-5"
       inkscape:collect="always"><feGaussianBlur
         id="feGaussianBlur3342-3"
         stdDeviation="3.9590909"
         inkscape:collect="always" /></filter><radialGradient
       id="radialGradient2340-9"
       xlink:href="#linearGradient2254"
       gradientUnits="userSpaceOnUse"
       cy="389.51001"
       cx="380"
       gradientTransform="matrix(-0.0137284,-0.12105489,0.12921234,-0.01465299,23.819032,98.776701)"
       r="148.86"
       inkscape:collect="always" /><filter
       id="filter3340-5-8"
       inkscape:collect="always"><feGaussianBlur
         id="feGaussianBlur3342-3-8"
         stdDeviation="3.9590909"
         inkscape:collect="always" /></filter><linearGradient
       id="linearGradient4038"
       gradientUnits="userSpaceOnUse"
       x1="39.3022"
       y1="222.79201"
       x2="78.625504"
       y2="222.79201"><stop
         offset="0.0056"
         stop-color="#B1D2EC"
         id="stop4040" /><stop
         offset="1"
         stop-color="#C8E6F6"
         id="stop4042" /></linearGradient><clipPath
       clipPathUnits="userSpaceOnUse"
       id="clipPath5817"><path
         d="m 381.7595,275.31513 -118.12533,206.22393 74.84484,134.72502 178.13547,0.50891 c 0,0 120.23682,-203.87418 126.21403,-213.9986 8.2944,0 46.60471,0 46.60471,0 L 616.84065,275.31513 Z"
         id="path5819"
         style="overflow:visible;fill:#000000;fill-opacity:1"
         inkscape:connector-curvature="0" /></clipPath><clipPath
       clipPathUnits="userSpaceOnUse"
       id="clipPath5862"><path
         d="m 67.157239,29.001766 -15.317477,26.741345 9.705235,17.469982 23.099073,0.06599 c 0,0 15.59128,-26.436651 16.36635,-27.749499 1.07555,0 6.0433,0 6.0433,0 L 97.640546,29.001763 H 67.157239 Z"
         id="path5864"
         style="overflow:visible;fill:url(#linearGradient5866)"
         inkscape:connector-curvature="0" /></clipPath><linearGradient
       inkscape:collect="always"
       xlink:href="#linearGradient4155"
       id="linearGradient5866"
       gradientUnits="userSpaceOnUse"
       gradientTransform="matrix(1.4041137,0,0,1.4041137,-3.3447134,-261.68488)"
       x1="39.3022"
       y1="222.79201"
       x2="78.625504"
       y2="222.79201" /></defs><sodipodi:namedview
     pagecolor="#ffffff"
     bordercolor="#666666"
     borderopacity="1"
     objecttolerance="10"
     gridtolerance="10"
     guidetolerance="10"
     inkscape:pageopacity="0"
     inkscape:pageshadow="2"
     inkscape:window-width="1588"
     inkscape:window-height="1157"
     id="namedview3331"
     showgrid="false"
     inkscape:zoom="0.60811183"
     inkscape:cx="269.99304"
     inkscape:cy="37.922568"
     inkscape:window-x="0"
     inkscape:window-y="0"
     inkscape:window-maximized="0"
     inkscape:current-layer="Layer_1"
     fit-margin-top="0"
     fit-margin-left="0"
     fit-margin-right="0"
     fit-margin-bottom="0"
     showguides="true"
     inkscape:guide-bbox="true" /><text
     xml:space="preserve"
     style="font-style:italic;font-variant:normal;font-weight:bold;font-stretch:normal;line-height:0%;font-family:'Nimbus Sans L';-inkscape-font-specification:'Nimbus Sans L, Bold Italic';text-align:start;letter-spacing:0px;word-spacing:0px;writing-mode:lr-tb;text-anchor:start;fill:#00507f;fill-opacity:1;stroke:none;stroke-width:1px;stroke-linecap:butt;stroke-linejoin:miter;stroke-opacity:1"
     x="183.82057"
     y="127.98105"
     id="text5174"><tspan
       sodipodi:role="line"
       id="tspan5176"
       x="183.82057"
       y="127.98105"
       style="font-size:131.83750916px;line-height:1">Faber </tspan></text>
<g
     id="g3810"
     transform="matrix(1.4929782,0,0,1.4929782,-8.0247578,-280.6799)"><g
       id="shadow-1"><radialGradient
         gradientUnits="userSpaceOnUse"
         r="58.375"
         cy="246.375"
         cx="63.75"
         id="radialGradient3999"><stop
           id="stop4001"
           style="stop-color:#000000"
           offset="0" /><stop
           id="stop4003"
           style="stop-color:#191919"
           offset="0.0641" /><stop
           id="stop4005"
           style="stop-color:#5E5E5E"
           offset="0.2539" /><stop
           id="stop4007"
           style="stop-color:#979797"
           offset="0.4336" /><stop
           id="stop4009"
           style="stop-color:#C4C4C4"
           offset="0.5979" /><stop
           id="stop4011"
           style="stop-color:#E4E4E4"
           offset="0.7439" /><stop
           id="stop4013"
           style="stop-color:#F8F8F8"
           offset="0.866" /><stop
           id="stop4015"
           style="stop-color:#FFF"
           offset="0.9494" /></radialGradient><circle
         id="circle22"
         r="58.375"
         cy="246.375"
         cx="63.75"
         style="opacity:0.3;fill:url(#XMLID_5_-6-6)" /></g></g><g
     id="left-down-8"
     transform="matrix(1.4929782,0,0,1.4929782,-8.0247578,-281.62883)"><linearGradient
       y2="262.375"
       x2="72.826698"
       y1="262.375"
       x1="28.6553"
       gradientUnits="userSpaceOnUse"
       id="linearGradient4020"><stop
         id="stop4022"
         stop-color="#8AACD6"
         offset="0" /><stop
         id="stop4024"
         stop-color="#A7C7E6"
         offset="1" /></linearGradient><polygon
       style="fill:url(#linearGradient4213)"
       id="polygon32"
       points="61.665,281.375 72.827,262.465 61.668,243.375 39.724,243.375 28.655,262.286 39.721,281.375 " /><path
       style="fill:#ffffff"
       inkscape:connector-curvature="0"
       id="path34"
       d="M 62.242,242.375 H 61.094 40.297 39.15 l -0.579,0.99 -10.485,17.914 -0.589,1.005 0.585,1.008 10.485,18.086 0.578,0.997 h 1.152 20.797 1.142 l 0.58,-0.983 10.572,-17.913 0.597,-1.012 -0.592,-1.014 -10.572,-18.087 z m -32.43,19.914 10.485,-17.914 h 20.797 l 10.572,18.087 v 0 0 L 61.094,280.375 H 40.297 Z" /></g><g
     id="right-center-7"
     transform="matrix(1.4929782,0,0,1.4929782,-8.0247578,-281.62883)"><linearGradient
       y2="242.22659"
       x2="110.314"
       y1="242.22659"
       x1="66.6689"
       gradientUnits="userSpaceOnUse"
       id="linearGradient4029"><stop
         id="stop4031"
         stop-color="#B1D2EC"
         offset="0.0056" /><stop
         id="stop4033"
         stop-color="#C8E6F6"
         offset="1" /></linearGradient><polygon
       style="fill:url(#linearGradient4215)"
       id="polygon42"
       points="99.112,261.21 110.314,242.047 99.106,223.15 77.164,223.15 66.669,241.262 78.307,261.304 " /><path
       style="fill:#ffffff"
       inkscape:connector-curvature="0"
       id="path44"
       d="M 99.675,222.15 H 98.536 77.739 76.586 l -0.578,0.997 -9.914,17.112 -0.581,1.004 0.582,1.003 11.056,19.039 0.582,1.001 1.157,-0.005 19.655,-0.088 1.142,-0.005 0.576,-0.986 10.617,-18.162 0.594,-1.016 -0.601,-1.013 -10.617,-17.901 z m -31.85,19.112 9.914,-17.112 h 20.797 l 10.617,17.901 v 0 0 l -10.617,18.162 -19.655,0.088 z" /></g><path
     d="m 66.939171,27.454978 -16.2869,28.43377 10.319466,18.575634 24.560984,0.07017 c 0,0 16.578029,-28.109793 17.402159,-29.505728 1.14362,0 6.42577,0 6.42577,0 L 99.351727,27.454978 Z"
     id="path52"
     style="fill:url(#linearGradient4217)"
     inkscape:connector-curvature="0" /><path
     d="M 100.22064,25.962 H 98.484307 67.803605 66.073243 l -0.859955,1.501936 -15.437395,26.952735 -0.837561,1.461626 0.818152,1.472076 9.484891,17.073699 0.849505,1.531796 1.751263,0.0045 22.830623,0.06569 1.710953,0.0045 0.870406,-1.47357 16.534735,-28.035145 h 3.00387 5.13734 l -2.54254,-4.464004 -8.30843,-14.58789 -0.85846,-1.507908 v 0 z M 52.36621,55.900691 67.803605,28.947956 h 30.680702 l 8.308423,14.58789 v 0 0 h -4.71035 L 84.681724,73.040081 61.851101,72.974391 52.36621,55.900692 v 0 z"
     id="path54"
     inkscape:connector-curvature="0"
     style="fill:#ffffff" /><g
     transform="matrix(0.20048389,0,0,0.20048389,14.964997,-38.39022)"
     id="g3624"><path
       inkscape:connector-curvature="0"
       d="m 594.96,464.35 c -4.4,10.58 -16.09,16.53 -27.51,13.47 -10.83,-2.9 -17.84,-12.95 -17.26,-23.68 -8.39,-0.43 -16.7,-0.03 -24.84,1.1 1.28,11.23 -5.81,22.01 -17.08,25.01 -10.47,2.79 -21.22,-1.99 -26.33,-10.99 -6.14,3.25 -12.05,6.96 -17.61,11.12 6.93,9.11 6.23,22.14 -2.09,30.43 -7.93,7.9 -20.19,8.91 -29.24,2.99 -4.32,6.64 -8.09,13.74 -11.21,21.25 11.1,4.16 17.45,16.11 14.33,27.75 -2.94,10.96 -13.29,17.95 -24.25,17.1 -0.15,3.7 -0.17,7.37 -0.02,11.03 2.18,0.01 4.34,0.32 6.39,0.92 7.55,2.21 13.81,8.18 16,16.31 2.98,11.06 -2.57,22.4 -12.64,27.05 2.98,7.25 6.59,14.23 10.8,20.84 5.61,-3.98 12.61,-5.19 19.06,-3.61 4.01,0.98 7.79,3.03 10.91,6.15 8.68,8.64 9.09,22.4 1.25,31.52 6.2,4.74 12.87,8.97 19.96,12.61 4.87,-9.59 15.97,-14.79 26.8,-11.89 11.41,3.06 18.56,14.06 17.08,25.43 7.07,0.9 14.11,1.23 21.07,1 -0.71,-10.82 6.3,-20.98 17.2,-23.88 3.88,-1.04 7.8,-1.02 11.46,-0.14 7.34,1.77 13.6,7.06 16.38,14.45 7.79,-3.15 15.27,-7.04 22.32,-11.6 -5.94,-9.01 -4.95,-21.24 2.99,-29.15 5.96,-5.94 14.37,-7.99 22.01,-6.13 3.05,0.75 5.98,2.12 8.59,4.11 4.36,-5.78 8.28,-11.96 11.68,-18.51 -9.13,-5.05 -14.02,-15.82 -11.21,-26.32 2.99,-11.16 13.68,-18.23 24.87,-17.06 1.56,-11.8 1.48,-23.53 -0.09,-34.94 -11.84,2.2 -23.59,-5.03 -26.77,-16.83 -2.98,-11.03 2.55,-22.33 12.57,-27.01 -3.5,-6.58 -7.54,-12.88 -12.1,-18.79 -9.07,6.25 -21.62,5.35 -29.71,-2.71 -7.6,-7.57 -8.86,-19.08 -3.79,-27.94 -6.27,-4 -12.94,-7.52 -19.97,-10.46 z m -39.05,76.32 c 0.78,0.21 1.54,0.43 2.3,0.68 3.03,0.98 5.91,2.25 8.6,3.76 0.67,0.38 1.33,0.77 1.98,1.18 1.3,0.82 2.54,1.69 3.74,2.62 0.59,0.47 1.17,0.95 1.75,1.45 0.28,0.24 0.57,0.5 0.85,0.75 0.04,0.04 0.08,0.08 0.11,0.12 0.38,0.34 0.76,0.69 1.13,1.05 0.4,0.39 0.79,0.78 1.18,1.19 1.04,1.08 2.04,2.21 2.96,3.38 0.35,0.45 0.69,0.9 1.03,1.35 0.2,0.28 0.41,0.55 0.61,0.84 0.26,0.38 0.51,0.77 0.77,1.16 0.47,0.72 0.94,1.46 1.38,2.21 0.28,0.49 0.54,0.98 0.8,1.47 0.01,0.01 0.01,0.02 0.02,0.03 0.12,0.23 0.24,0.45 0.36,0.68 0.3,0.6 0.59,1.19 0.87,1.8 0.07,0.17 0.15,0.33 0.23,0.5 0.22,0.52 0.45,1.04 0.66,1.56 0.26,0.65 0.5,1.3 0.73,1.96 0.33,0.93 0.63,1.87 0.9,2.82 0.15,0.54 0.28,1.08 0.42,1.63 0.35,1.46 0.63,2.93 0.85,4.42 0.09,0.66 0.18,1.31 0.24,1.98 0.01,0.06 0,0.13 0.01,0.2 0.05,0.6 0.09,1.2 0.13,1.8 0,0.08 0.01,0.16 0.01,0.25 0.01,0.23 0.01,0.47 0.01,0.71 0.02,0.58 0.05,1.17 0.04,1.75 0,0.17 0,0.33 -0.01,0.49 0,0.41 -0.03,0.83 -0.04,1.24 -0.03,0.51 -0.05,1.03 -0.09,1.54 v 0.08 c -0.01,0.05 -0.02,0.09 -0.02,0.14 -0.05,0.59 -0.1,1.18 -0.17,1.78 0,0.04 -0.01,0.08 -0.01,0.12 -0.02,0.13 -0.05,0.26 -0.06,0.39 -0.08,0.54 -0.15,1.09 -0.24,1.64 -0.12,0.68 -0.24,1.36 -0.39,2.04 -0.16,0.77 -0.35,1.56 -0.56,2.33 -0.41,1.55 -0.89,3.04 -1.45,4.51 0,0.01 -0.01,0.02 -0.01,0.02 -0.28,0.73 -0.57,1.45 -0.88,2.16 0,0 0,0.01 -0.01,0.02 -0.31,0.7 -0.64,1.4 -0.98,2.08 -0.01,0.01 0,0.02 -0.01,0.02 -0.17,0.35 -0.35,0.68 -0.53,1.02 -0.18,0.33 -0.37,0.67 -0.56,1 v 0.02 c -0.38,0.66 -0.77,1.32 -1.18,1.96 v 0.02 c -0.82,1.28 -1.7,2.53 -2.63,3.71 -0.93,1.2 -1.91,2.32 -2.95,3.41 v 0.02 c -1.03,1.08 -2.12,2.11 -3.25,3.08 0,0.01 0,0.02 -0.01,0.02 -0.56,0.49 -1.13,0.95 -1.71,1.41 -0.01,0 -0.01,0.01 -0.01,0.02 -0.58,0.45 -1.19,0.89 -1.8,1.32 v 0.02 c -2.44,1.72 -5.04,3.22 -7.75,4.45 -2.72,1.24 -5.57,2.22 -8.5,2.92 -1.46,0.35 -2.95,0.62 -4.45,0.83 -1.51,0.21 -3.02,0.34 -4.55,0.4 -0.76,0.03 -1.54,0.04 -2.31,0.03 -3.08,-0.03 -6.21,-0.37 -9.33,-1.03 -0.78,-0.17 -1.55,-0.36 -2.33,-0.57 -0.78,-0.21 -1.54,-0.43 -2.3,-0.68 -3.03,-0.98 -5.91,-2.25 -8.6,-3.76 -0.67,-0.38 -1.33,-0.77 -1.98,-1.18 -1.3,-0.82 -2.54,-1.69 -3.74,-2.62 -1.19,-0.93 -2.35,-1.92 -3.44,-2.95 -0.55,-0.52 -1.07,-1.06 -1.59,-1.6 -0.52,-0.55 -1.03,-1.11 -1.52,-1.67 -0.5,-0.57 -0.97,-1.14 -1.43,-1.72 -0.93,-1.18 -1.8,-2.39 -2.61,-3.64 -0.4,-0.63 -0.79,-1.27 -1.16,-1.91 -0.38,-0.65 -0.74,-1.29 -1.08,-1.96 -0.01,0 0,-0.01 0,-0.02 -0.34,-0.66 -0.68,-1.33 -0.99,-2.01 -0.31,-0.67 -0.61,-1.37 -0.89,-2.06 -0.28,-0.69 -0.54,-1.39 -0.78,-2.09 -0.49,-1.42 -0.91,-2.86 -1.27,-4.32 -0.35,-1.46 -0.64,-2.93 -0.85,-4.42 0,-0.01 0.01,-0.02 0.01,-0.02 -0.11,-0.75 -0.21,-1.49 -0.28,-2.25 l 0.01,-0.01 c -0.07,-0.76 -0.11,-1.51 -0.15,-2.27 -0.03,-0.75 -0.03,-1.49 -0.03,-2.24 0,-0.06 0.01,-0.11 0.01,-0.16 0,-0.69 0.02,-1.39 0.06,-2.07 0.01,-0.18 0.03,-0.35 0.04,-0.52 0.03,-0.49 0.06,-0.97 0.1,-1.45 0.03,-0.25 0.05,-0.49 0.08,-0.74 0,-0.01 0.01,-0.03 0.01,-0.05 0.08,-0.64 0.17,-1.28 0.27,-1.92 0.02,-0.11 0.03,-0.22 0.05,-0.33 0.11,-0.65 0.25,-1.31 0.38,-1.96 0.01,-0.06 0.01,-0.11 0.03,-0.16 0.16,-0.78 0.35,-1.55 0.56,-2.32 0.2,-0.78 0.43,-1.54 0.67,-2.3 0.24,-0.75 0.5,-1.49 0.78,-2.22 0,-0.01 0,-0.01 0.01,-0.02 0.27,-0.73 0.57,-1.45 0.88,-2.16 v -0.02 c 0.32,-0.7 0.65,-1.4 0.99,-2.08 0,-0.01 0,-0.02 0.01,-0.02 0.34,-0.69 0.71,-1.36 1.09,-2.02 v -0.02 c 0.38,-0.66 0.77,-1.32 1.18,-1.96 v -0.02 c 0.41,-0.64 0.83,-1.27 1.26,-1.89 0.33,-0.46 0.68,-0.92 1.02,-1.37 l 0.12,-0.15 c 0.17,-0.22 0.33,-0.44 0.5,-0.65 0.27,-0.34 0.54,-0.66 0.82,-0.98 0.18,-0.23 0.37,-0.44 0.56,-0.66 0.42,-0.48 0.86,-0.96 1.3,-1.42 v -0.02 c 0.52,-0.54 1.04,-1.07 1.58,-1.58 0.55,-0.52 1.1,-1.03 1.67,-1.52 0.57,-0.49 1.14,-0.95 1.72,-1.41 0.01,0 0,-0.01 0.01,-0.02 0.58,-0.45 1.19,-0.89 1.8,-1.32 v -0.02 c 0.61,-0.43 1.23,-0.84 1.86,-1.24 1.89,-1.21 3.85,-2.28 5.89,-3.21 2.72,-1.24 5.57,-2.22 8.5,-2.92 1.46,-0.35 2.95,-0.62 4.45,-0.83 1.51,-0.21 3.02,-0.34 4.55,-0.4 0.76,-0.03 1.54,-0.04 2.31,-0.03 3.08,0.03 6.21,0.37 9.32,1.04 0.78,0.16 1.56,0.35 2.34,0.56 z"
       style="fill:#c0c0c0"
       id="path3396" /><path
       inkscape:connector-curvature="0"
       d="m 571.61,482.04 c -57.41,-15.39 -116.43,18.56 -131.76,75.75 -15.32,57.2 18.82,116.09 76.23,131.47 57.41,15.38 116.45,-18.54 131.77,-75.73 15.33,-57.2 -18.83,-116.11 -76.24,-131.49 z m -15.69,58.63 c 0.78,0.21 1.54,0.44 2.3,0.68 3.03,0.98 5.91,2.25 8.6,3.76 0.67,0.38 1.33,0.78 1.98,1.18 1.3,0.82 2.54,1.7 3.73,2.63 1.8,1.39 3.47,2.92 5.03,4.55 1.04,1.08 2.04,2.21 2.96,3.39 1.39,1.76 2.66,3.62 3.79,5.55 2.24,3.88 3.92,8.07 4.99,12.45 0.35,1.46 0.63,2.93 0.84,4.43 0.75,5.25 0.59,10.7 -0.58,16.14 -0.16,0.77 -0.35,1.56 -0.56,2.33 -0.41,1.55 -0.89,3.05 -1.45,4.52 -0.01,0 -0.01,0.01 -0.01,0.01 -0.28,0.73 -0.57,1.45 -0.88,2.16 0,0.01 0,0.01 -0.01,0.02 -0.31,0.71 -0.64,1.4 -0.98,2.09 -0.01,0 -0.01,0.01 -0.01,0.02 -0.34,0.68 -0.71,1.35 -1.09,2.02 v 0.01 c -0.38,0.67 -0.77,1.32 -1.18,1.96 v 0.02 c -1.64,2.57 -3.51,4.95 -5.58,7.12 v 0.02 c -1.04,1.09 -2.12,2.11 -3.25,3.09 0,0 0,0.01 -0.01,0.02 -0.56,0.48 -1.13,0.94 -1.72,1.4 v 0.02 c -0.58,0.46 -1.2,0.89 -1.8,1.32 0,0 0,0.02 -0.01,0.02 -1.21,0.86 -2.46,1.66 -3.75,2.4 -0.65,0.38 -1.31,0.73 -1.98,1.07 -0.66,0.34 -1.33,0.68 -2.01,0.98 -2.72,1.24 -5.57,2.22 -8.5,2.92 -1.46,0.35 -2.95,0.63 -4.45,0.83 -1.51,0.21 -3.02,0.35 -4.55,0.41 -0.77,0.03 -1.54,0.04 -2.31,0.03 -3.08,-0.04 -6.21,-0.37 -9.33,-1.04 -0.78,-0.17 -1.55,-0.36 -2.33,-0.57 -0.78,-0.2 -1.54,-0.43 -2.3,-0.67 -3.03,-0.98 -5.91,-2.25 -8.6,-3.77 -0.67,-0.38 -1.33,-0.77 -1.98,-1.18 -1.3,-0.82 -2.54,-1.69 -3.74,-2.62 -1.79,-1.4 -3.47,-2.93 -5.03,-4.55 -1.04,-1.09 -2.03,-2.22 -2.96,-3.39 -1.85,-2.35 -3.46,-4.87 -4.84,-7.52 -0.34,-0.67 -0.68,-1.33 -0.99,-2.01 -1.24,-2.72 -2.23,-5.55 -2.94,-8.48 -0.35,-1.46 -0.64,-2.92 -0.85,-4.42 0,-0.01 0.01,-0.01 0.01,-0.02 -0.11,-0.74 -0.21,-1.49 -0.28,-2.24 0,-0.01 0.01,-0.02 0.01,-0.02 -0.07,-0.76 -0.11,-1.51 -0.15,-2.27 -0.15,-3.82 0.16,-7.71 0.99,-11.6 0.17,-0.77 0.36,-1.55 0.57,-2.32 0.41,-1.56 0.89,-3.06 1.46,-4.54 0.27,-0.73 0.57,-1.45 0.88,-2.15 v -0.02 c 0.31,-0.71 0.65,-1.4 0.99,-2.09 0,-0.01 0,-0.01 0.01,-0.02 0.34,-0.69 0.71,-1.36 1.09,-2.02 v -0.02 c 0.38,-0.66 0.77,-1.31 1.18,-1.95 v -0.02 c 0.41,-0.65 0.82,-1.27 1.26,-1.9 1.32,-1.86 2.76,-3.61 4.32,-5.25 0.52,-0.54 1.04,-1.06 1.58,-1.58 0.55,-0.52 1.1,-1.03 1.67,-1.52 0.57,-0.49 1.14,-0.95 1.72,-1.4 0.01,-0.01 0,-0.02 0.01,-0.02 0.58,-0.46 1.19,-0.9 1.8,-1.33 v -0.01 c 0.61,-0.44 1.23,-0.85 1.86,-1.25 0.63,-0.4 1.25,-0.78 1.9,-1.15 0.65,-0.38 1.31,-0.73 1.98,-1.08 0.66,-0.34 1.33,-0.67 2.01,-0.98 2.72,-1.23 5.57,-2.21 8.5,-2.91 1.46,-0.35 2.95,-0.63 4.45,-0.84 1.5,-0.2 3.02,-0.34 4.55,-0.4 0.76,-0.03 1.54,-0.04 2.31,-0.03 3.08,0.03 6.21,0.37 9.32,1.04 0.78,0.17 1.56,0.35 2.34,0.56 z"
       style="opacity:0.79393999;fill:#a9a9a9"
       id="path3398" /><path
       inkscape:connector-curvature="0"
       d="m 567.99,495.53 c -49.93,-13.38 -101.27,16.14 -114.6,65.89 -13.33,49.75 16.37,100.97 66.31,114.35 49.93,13.38 101.28,-16.12 114.61,-65.87 13.33,-49.75 -16.38,-100.99 -66.32,-114.37 z m -12.07,45.14 c 24.92,6.68 39.73,32.26 33.08,57.09 -6.65,24.82 -32.27,39.55 -57.19,32.87 -24.92,-6.67 -39.74,-32.26 -33.08,-57.08 6.65,-24.83 32.27,-39.55 57.19,-32.88 z"
       style="opacity:0.79393999;fill:url(#radialGradient3406)"
       id="path3400" /><path
       inkscape:connector-curvature="0"
       d="m 388.88,274.48 c -60.1,0 -108.88,48.77 -108.88,108.86 0,60.09 48.78,108.89 108.88,108.89 60.09,0 108.87,-48.76 108.87,-108.85 v -0.04 c 0,-60.09 -48.78,-108.86 -108.87,-108.86 z m 0,24.66 c 46.57,0 84.37,37.74 84.37,84.24 0,46.5 -37.8,84.2 -84.37,84.2 -46.58,0 -84.38,-37.74 -84.38,-84.24 0,-46.5 37.8,-84.2 84.38,-84.2 z"
       transform="matrix(0.50862,0.13628,-0.13558,0.506,398.04,338.67)"
       style="opacity:0.58788003;fill:#696969;filter:url(#filter3340)"
       id="path3402" /><path
       inkscape:connector-curvature="0"
       d="m 558.29,531.76 c -29.81,-7.99 -60.47,9.67 -68.44,39.41 -7.97,29.74 9.75,60.38 39.56,68.37 29.82,7.99 60.48,-9.66 68.45,-39.41 l 0.01,-0.02 c 7.97,-29.74 -9.76,-60.36 -39.58,-68.35 z m -3.27,12.2 c 23.11,6.19 36.85,29.9 30.69,52.92 -6.17,23.01 -29.92,36.65 -53.03,30.46 -23.1,-6.19 -36.85,-29.9 -30.68,-52.91 6.17,-23.02 29.92,-36.66 53.02,-30.47 z"
       style="fill:#c0c0c0"
       id="path3404" /></g><path
     id="path2274"
     style="fill:#974d4d;fill-opacity:1"
     d="m 71.478355,82.755163 c -0.312098,2.356337 -2.329029,4.176907 -4.769893,4.176907 -2.318626,0 -4.256232,-1.637212 -4.713975,-3.819295 -1.698332,0.365414 -3.336845,0.890778 -4.901234,1.556587 0.858268,2.180782 0.01821,4.721778 -2.072849,5.928555 -1.940207,1.120951 -4.342059,0.738632 -5.844029,-0.788046 -1.05333,0.979206 -2.032536,2.040338 -2.920714,3.172993 1.869985,1.452554 2.427859,4.101483 1.210679,6.209443 -1.161264,2.011733 -3.555313,2.871303 -5.677577,2.170383 -0.50846,1.56309 -0.881676,3.1886 -1.101445,4.86092 2.438263,0.23668 4.34466,2.29132 4.34466,4.7907 0,2.35504 -1.69183,4.31215 -3.925929,4.73088 0.166452,0.74774 0.358912,1.48507 0.585183,2.21069 0.436937,-0.11573 0.884277,-0.16905 1.325115,-0.15865 1.626809,0.0364 3.1951,0.89859 4.067673,2.40966 1.187271,2.05594 0.684014,4.62685 -1.076737,6.09891 0.983108,1.2939 2.07805,2.49808 3.271824,3.59692 0.906384,-1.09884 2.239301,-1.71653 3.612531,-1.74774 0.851766,-0.0182 1.715236,0.18986 2.507184,0.6463 2.193787,1.26659 3.013043,4.00265 1.933705,6.24975 1.492868,0.619 3.050755,1.10795 4.66196,1.45516 0.457743,-2.18208 2.395349,-3.8193 4.713975,-3.8193 2.440864,0 4.457795,1.82057 4.769893,4.17691 1.460357,-0.19896 2.883002,-0.50976 4.258833,-0.92979 -0.719125,-2.13007 0.137843,-4.54362 2.158675,-5.71009 0.719125,-0.41483 1.503271,-0.62159 2.279614,-0.6424 1.560488,-0.0403 3.092368,0.68402 4.042965,2.01563 1.388835,-1.05073 2.673637,-2.2315 3.836201,-3.5228 -1.668422,-1.48766 -2.123565,-3.99095 -0.962301,-6.00268 0.872573,-1.51107 2.440864,-2.37324 4.067673,-2.40965 0.648903,-0.0143 1.308209,0.10273 1.933705,0.36151 0.563076,-1.39143 1.013017,-2.84139 1.34202,-4.33556 -2.093655,-0.52406 -3.646341,-2.41875 -3.646341,-4.67366 0,-2.39795 1.75685,-4.38757 4.052068,-4.75429 -0.3186,-2.44996 -0.962301,-4.7959 -1.88559,-6.997491 -2.247103,1.075441 -4.979259,0.258781 -6.245855,-1.935005 -1.18337,-2.050742 -0.685314,-4.612544 1.065033,-6.087206 -1.050729,-1.131354 -2.195087,-2.176881 -3.422671,-3.117075 -1.475962,1.738644 -4.028661,2.232799 -6.074201,1.052029 -1.923302,-1.109247 -2.791974,-3.347248 -2.252305,-5.396689 -1.465559,-0.465546 -2.985734,-0.811454 -4.547523,-1.02342 z m -3.713963,17.392947 c 0.166453,0 0.331604,0.004 0.495455,0.0117 0.659307,0.0338 1.301708,0.13395 1.918101,0.2926 0.154748,0.0403 0.308196,0.0832 0.460344,0.13004 0.301694,0.0949 0.596887,0.20286 0.885577,0.3251 0.144345,0.0611 0.28609,0.12744 0.426534,0.19506 0.07022,0.0338 0.141744,0.0702 0.210665,0.10533 0.0104,0.005 0.01951,0.0117 0.02861,0.0169 0.09493,0.0481 0.188559,0.0988 0.280888,0.15084 0.101432,0.0572 0.201563,0.11314 0.300394,0.17426 0.265283,0.16125 0.524064,0.3342 0.772442,0.52016 0.09233,0.0689 0.185958,0.14305 0.275686,0.21587 0.05592,0.0442 0.113136,0.0871 0.167753,0.13394 0.07282,0.0611 0.143045,0.12614 0.214567,0.19116 0.135242,0.11964 0.266583,0.24188 0.394023,0.36932 0.08193,0.0819 0.161251,0.16645 0.240576,0.25228 l 0.0039,0.004 c 0.03641,0.039 0.07412,0.078 0.109234,0.11703 0.09233,0.10274 0.180757,0.20677 0.267884,0.3134 0.02471,0.0299 0.04941,0.0598 0.07412,0.0897 0.07282,0.0897 0.145646,0.18336 0.214567,0.27569 0.08713,0.11703 0.170354,0.23407 0.252279,0.35371 0.114436,0.16905 0.224971,0.3407 0.329003,0.51626 0.05982,0.10013 0.115736,0.20286 0.170354,0.30429 0.149546,0.27439 0.284789,0.55268 0.407027,0.84137 0.05332,0.12744 0.106633,0.25358 0.154748,0.38232 0.0052,0.013 0.0065,0.0273 0.0117,0.0403 0.04291,0.11704 0.08323,0.23537 0.122238,0.35371 0.0052,0.0169 0.0104,0.0325 0.0156,0.0494 0.01561,0.0468 0.02731,0.0949 0.04161,0.14174 0.03511,0.11574 0.07022,0.23147 0.101432,0.34981 l 0.02341,0.0975 c 0.02081,0.0832 0.03901,0.16775 0.05722,0.25228 0.02341,0.10273 0.04551,0.20676 0.06502,0.3121 0.0013,0.005 0.0039,0.0104 0.0039,0.0169 0.0026,0.009 0.0026,0.0182 0.0039,0.0286 0.02211,0.12094 0.04421,0.24188 0.06112,0.36541 0.0013,0.008 0.0039,0.0156 0.0039,0.0247 0.0039,0.026 0.0052,0.0533 0.0091,0.0806 0.01431,0.11313 0.02991,0.22627 0.04031,0.342 0.013,0.14175 0.02471,0.28609 0.03251,0.43044 0.0078,0.16255 0.0117,0.3303 0.0117,0.49545 0,0.33291 -0.01561,0.65931 -0.04811,0.98311 v 0.004 c -0.01691,0.16125 -0.03641,0.3212 -0.06112,0.47985 v 0.004 c -0.02471,0.15864 -0.05332,0.31599 -0.08583,0.47204 0,0.001 0.0013,0.003 0,0.004 -0.01561,0.078 -0.03381,0.15475 -0.05202,0.23148 -0.0182,0.078 -0.03771,0.15474 -0.05722,0.23147 v 0.004 c -0.03901,0.15345 -0.08323,0.3056 -0.13004,0.45514 v 0.004 c -0.09363,0.3017 -0.202864,0.59819 -0.325102,0.88688 -0.122238,0.28869 -0.257481,0.56698 -0.407027,0.84136 0,0 0.0013,0.003 0,0.004 -0.148247,0.27178 -0.309497,0.53576 -0.482451,0.79194 -0.0013,10e-4 0,0.003 0,0.004 -0.08713,0.12743 -0.176856,0.25097 -0.269185,0.37451 0,0 0.0013,0.003 0,0.004 -0.09233,0.12224 -0.189859,0.24318 -0.28869,0.36152 0,0.001 0.0013,0.003 0,0.004 -0.392723,0.47595 -0.83096,0.91548 -1.30821,1.30821 -0.477249,0.39402 -0.99221,0.74383 -1.539681,1.04032 -0.274386,0.14955 -0.556575,0.28479 -0.845265,0.40703 -0.28869,0.12224 -0.583883,0.23017 -0.885577,0.3251 -0.152148,0.0468 -0.305596,0.0897 -0.460344,0.13004 -0.616393,0.15865 -1.258794,0.25878 -1.918101,0.29259 -0.163851,0.008 -0.329002,0.0117 -0.495455,0.0117 -0.166452,0 -0.330303,-0.004 -0.495455,-0.0117 -0.658006,-0.0338 -1.300407,-0.13394 -1.9181,-0.29259 -0.154748,-0.0403 -0.308196,-0.0832 -0.459044,-0.13004 -0.302994,-0.0949 -0.596886,-0.20286 -0.885577,-0.3251 -0.289991,-0.12224 -0.572179,-0.25748 -0.845264,-0.40703 -0.137844,-0.0741 -0.270485,-0.15475 -0.403127,-0.23537 -0.132641,-0.0806 -0.265283,-0.16515 -0.394023,-0.25228 -0.12874,-0.0858 -0.253579,-0.17555 -0.378418,-0.26788 -0.247078,-0.18596 -0.486353,-0.38102 -0.715224,-0.58909 -0.113136,-0.10403 -0.22367,-0.21196 -0.332904,-0.3212 -0.109235,-0.10923 -0.215868,-0.21847 -0.321201,-0.3329 0,-10e-4 0.0013,-0.004 0,-0.004 -0.104032,-0.11444 -0.205464,-0.23018 -0.304295,-0.34981 -0.09883,-0.11964 -0.196362,-0.24188 -0.28869,-0.36542 -0.09233,-0.12484 -0.180757,-0.24968 -0.267884,-0.37842 -0.174255,-0.25748 -0.335505,-0.52276 -0.483752,-0.79585 -0.148246,-0.27438 -0.284789,-0.55267 -0.407027,-0.84136 0,-0.001 0.0013,-0.004 0,-0.004 -0.05982,-0.14434 -0.120938,-0.28869 -0.174255,-0.43564 v -0.004 c -0.05462,-0.14824 -0.102732,-0.29519 -0.150847,-0.44734 -0.04551,-0.14694 -0.08583,-0.29519 -0.124839,-0.44604 -0.0039,-0.0117 -0.0065,-0.0221 -0.0091,-0.0325 -0.03511,-0.13784 -0.06762,-0.27958 -0.09753,-0.41873 -0.0065,-0.0351 -0.013,-0.0702 -0.01951,-0.10663 -0.01951,-0.0988 -0.04031,-0.19636 -0.05722,-0.29649 -0.0078,-0.0494 -0.01691,-0.10014 -0.02471,-0.14955 0,-0.004 0.0013,-0.009 0,-0.013 -0.01951,-0.13134 -0.03511,-0.26398 -0.04812,-0.39792 -0.0026,-0.0234 -0.0065,-0.0455 -0.0091,-0.0689 -0.013,-0.13654 -0.02081,-0.27569 -0.02731,-0.41483 -0.0013,-0.0104 -0.0039,-0.0208 -0.0052,-0.0325 -0.0078,-0.16385 -0.0117,-0.329 -0.0117,-0.49546 0,-0.16645 0.0039,-0.3316 0.0117,-0.49545 0.0091,-0.16385 0.02081,-0.3264 0.03771,-0.48765 0,-0.001 -0.0013,-0.003 0,-0.004 0.01561,-0.16125 0.03641,-0.3212 0.05982,-0.47985 0.0013,-0.001 0,-0.003 0,-0.004 0.02471,-0.15865 0.05462,-0.316 0.08583,-0.47204 v -0.004 c 0.03251,-0.15604 0.07022,-0.30949 0.109234,-0.46294 0.0013,-10e-4 0,-0.003 0,-0.004 0.04031,-0.15345 0.08453,-0.3056 0.130041,-0.45514 0.0013,-0.001 0,-0.003 0,-0.004 0.04812,-0.15214 0.09623,-0.29909 0.150847,-0.44734 0.04031,-0.11053 0.08583,-0.22106 0.130041,-0.329 0.0052,-0.013 0.0117,-0.0247 0.0169,-0.0364 0.02081,-0.0533 0.04161,-0.10663 0.06502,-0.15865 0.03511,-0.0806 0.07152,-0.15995 0.109234,-0.24057 0.02601,-0.0546 0.05072,-0.10794 0.07672,-0.16256 0.05852,-0.11833 0.119637,-0.23667 0.183357,-0.35371 v -0.004 c 0.07412,-0.13654 0.150848,-0.26918 0.231473,-0.40182 0.08192,-0.13395 0.165151,-0.26529 0.252279,-0.39403 0.08583,-0.12744 0.175555,-0.25098 0.267884,-0.37451 0.0013,0 0,-0.003 0,-0.004 0.09233,-0.12223 0.191159,-0.24317 0.28869,-0.36151 0,-10e-4 -0.0013,-0.003 0,-0.004 0.09883,-0.11964 0.200263,-0.23537 0.304295,-0.34981 0.312098,-0.34331 0.646302,-0.66321 1.003914,-0.9584 0.47725,-0.39402 0.993511,-0.74383 1.540983,-1.04032 0.273085,-0.14955 0.555273,-0.28479 0.845264,-0.40703 0.288691,-0.12224 0.582583,-0.23017 0.885577,-0.3251 0.150848,-0.0468 0.304296,-0.0897 0.459044,-0.13004 0.617693,-0.15865 1.260094,-0.25879 1.9181,-0.2926 0.165152,-0.008 0.329003,-0.0117 0.495455,-0.0117 z"
     inkscape:connector-curvature="0" /><path
     id="path2249"
     style="opacity:0.79393999;fill:#a9a9a9"
     d="m 67.763092,87.553665 c -12.284945,0 -22.253865,9.972821 -22.253865,22.257765 0,12.28495 9.96892,22.25387 22.253865,22.25387 12.284945,0 22.256466,-9.96892 22.256466,-22.25387 0,-12.284944 -9.971521,-22.257765 -22.256466,-22.257765 z m 0.0039,12.594445 c 0.166452,0 0.330304,0.004 0.495455,0.0117 0.658006,0.0338 1.300407,0.13395 1.918101,0.2926 0.154748,0.0403 0.308196,0.0832 0.459043,0.13004 0.302995,0.0949 0.596887,0.20286 0.885577,0.3251 0.434336,0.18336 0.849166,0.40052 1.248391,0.6424 0.265283,0.16125 0.524064,0.3342 0.772442,0.52016 0.371916,0.27829 0.724327,0.58258 1.052029,0.91029 0.655405,0.6554 1.215881,1.40574 1.66192,2.22629 0.148247,0.27439 0.284789,0.55268 0.407028,0.84137 0.427834,1.01301 0.689215,2.11446 0.747734,3.26792 0.0078,0.16255 0.0117,0.3303 0.0117,0.49545 0,0.33291 -0.0156,0.65931 -0.04941,0.98311 0,0.001 0.0013,0.003 0,0.004 -0.01561,0.16125 -0.03641,0.3212 -0.05982,0.47985 -0.0013,0.001 0,0.003 0,0.004 -0.02471,0.15864 -0.05462,0.31599 -0.08583,0.47204 v 0.004 c -0.03251,0.15605 -0.07022,0.3108 -0.109234,0.46295 -0.0013,0.001 0,0.003 0,0.004 -0.04031,0.15345 -0.08453,0.3056 -0.130041,0.45514 -0.0013,0.001 0,0.003 0,0.004 -0.188559,0.60469 -0.435636,1.18077 -0.732129,1.72824 v 0.004 c -0.148246,0.27178 -0.310797,0.53576 -0.483751,0.79194 0,0.001 0.0013,0.003 0,0.004 -0.08583,0.12743 -0.175555,0.25097 -0.267884,0.37451 -0.0013,0 0,0.003 0,0.004 -0.09233,0.12224 -0.19116,0.24318 -0.28869,0.36152 0,10e-4 0.0013,0.003 0,0.004 -0.196362,0.23797 -0.404427,0.46554 -0.621595,0.68271 -0.110534,0.11054 -0.222369,0.21587 -0.336805,0.3212 -0.114436,0.10403 -0.230172,0.20677 -0.34981,0.3043 -0.477249,0.39402 -0.993511,0.74383 -1.540982,1.04032 -0.273085,0.14955 -0.555274,0.28479 -0.845265,0.40703 -0.28869,0.12224 -0.582582,0.23017 -0.885577,0.3251 -0.150847,0.0468 -0.304295,0.0897 -0.459043,0.13004 -0.617694,0.15865 -1.260095,0.25878 -1.918101,0.29259 -0.165151,0.008 -0.329003,0.0117 -0.495455,0.0117 -0.166452,0 -0.331604,-0.004 -0.495455,-0.0117 -0.659306,-0.0338 -1.301707,-0.13394 -1.9181,-0.29259 -0.154749,-0.0403 -0.308197,-0.0832 -0.460344,-0.13004 -0.301695,-0.0949 -0.596887,-0.20286 -0.885577,-0.3251 -0.433036,-0.18336 -0.849166,-0.40053 -1.247091,-0.6424 -0.265283,-0.16125 -0.524064,-0.33421 -0.772441,-0.52016 -0.496756,-0.37192 -0.953199,-0.78935 -1.369329,-1.24709 -0.104033,-0.11444 -0.206765,-0.23018 -0.304295,-0.34981 -0.394024,-0.47725 -0.743833,-0.99221 -1.040326,-1.53969 -0.149547,-0.27438 -0.284789,-0.55267 -0.407027,-0.84136 v -0.004 c -0.06112,-0.14434 -0.120938,-0.28869 -0.174255,-0.43564 -0.0013,-0.001 0,-0.003 0,-0.004 -0.05462,-0.14824 -0.104032,-0.29519 -0.150847,-0.44734 -0.235374,-0.75683 -0.381019,-1.55268 -0.422632,-2.37714 -0.0078,-0.16385 -0.0117,-0.329 -0.0117,-0.49546 0,-0.3342 0.01561,-0.6619 0.04811,-0.98701 0.01691,-0.16125 0.03641,-0.3212 0.06112,-0.47985 v -0.004 c 0.02471,-0.15865 0.05332,-0.316 0.08583,-0.47204 0,-0.001 -0.0013,-0.003 0,-0.004 0.03121,-0.15604 0.07022,-0.30949 0.109234,-0.46294 v -0.004 c 0.03901,-0.15345 0.08323,-0.3056 0.130041,-0.45514 v -0.004 c 0.04682,-0.15214 0.09623,-0.29909 0.150847,-0.44734 0.162551,-0.44473 0.356312,-0.87257 0.581282,-1.2848 0.07412,-0.13654 0.150847,-0.26918 0.231473,-0.40182 0.08062,-0.13395 0.163851,-0.26529 0.250978,-0.39403 0.08713,-0.12744 0.176855,-0.25098 0.269184,-0.37451 0,0 -0.0013,-0.003 0,-0.004 0.09103,-0.12223 0.18986,-0.24317 0.288691,-0.36151 0,-10e-4 -0.0013,-0.003 0,-0.004 0.09753,-0.11964 0.200262,-0.23537 0.304295,-0.34981 0.104033,-0.11443 0.208065,-0.22367 0.317299,-0.3329 0.109234,-0.11054 0.22237,-0.21587 0.336806,-0.3212 0.114435,-0.10404 0.230172,-0.20677 0.349809,-0.3043 0.47725,-0.39402 0.992211,-0.74383 1.539682,-1.04032 0.274386,-0.14955 0.556574,-0.28479 0.845265,-0.40703 0.28869,-0.12224 0.583882,-0.23017 0.885577,-0.3251 0.152147,-0.0468 0.305595,-0.0897 0.460344,-0.13004 0.616393,-0.15865 1.258794,-0.25879 1.9181,-0.2926 0.163851,-0.008 0.329003,-0.0117 0.495455,-0.0117 z"
     inkscape:connector-curvature="0" /><path
     id="path2252"
     style="opacity:0.79393999;fill:url(#radialGradient2340)"
     d="m 67.763092,90.452272 c -10.685444,0 -19.356558,8.673714 -19.356558,19.359158 0,10.68545 8.671114,19.35526 19.356558,19.35526 10.685444,0 19.359159,-8.66981 19.359159,-19.35526 0,-10.685444 -8.673715,-19.359158 -19.359159,-19.359158 z m 0.0039,9.695838 c 5.331669,0 9.659423,4.33166 9.659423,9.66332 0,5.33297 -4.327754,9.65943 -9.659423,9.65943 -5.332969,0 -9.659423,-4.33036 -9.659423,-9.66333 0,-5.33297 4.326454,-9.65942 9.659423,-9.65942 z"
     inkscape:connector-curvature="0" /><path
     id="path3318"
     style="opacity:0.58788003;fill:#696969;filter:url(#filter3340-5)"
     transform="matrix(0.10884016,0,0,0.10868802,25.439526,68.143139)"
     d="m 388.88,274.48 c -60.1,0 -108.88,48.77 -108.88,108.86 0,60.09 48.78,108.89 108.88,108.89 60.09,0 108.87,-48.76 108.87,-108.85 v -0.04 c 0,-60.09 -48.78,-108.86 -108.87,-108.86 z m 0,24.66 c 46.57,0 84.37,37.74 84.37,84.24 0,46.5 -37.8,84.2 -84.37,84.2 -46.58,0 -84.38,-37.74 -84.38,-84.24 0,-46.5 37.8,-84.2 84.38,-84.2 z"
     inkscape:connector-curvature="0" /><path
     id="path3313"
     style="fill:#c0c0c0"
     d="m 67.764392,98.233907 c -6.379796,0 -11.556717,5.184723 -11.556717,11.573623 0,6.3889 5.176921,11.57753 11.556717,11.57753 6.379797,0 11.558018,-5.18473 11.558018,-11.57363 v -0.004 c 0,-6.3889 -5.178221,-11.573623 -11.558018,-11.573623 z m 0,2.621623 c 4.944148,0 8.957204,4.01176 8.957204,8.9559 0,4.94415 -4.013056,8.95201 -8.957204,8.95201 -4.944147,0 -8.955903,-4.01176 -8.955903,-8.95591 0,-4.94414 4.011756,-8.952 8.955903,-8.952 z"
     inkscape:connector-curvature="0" /><g
     id="g5831"
     clip-path="url(#clipPath5862)"
     transform="translate(-5.0000002e-8,-3.2000001e-6)"><path
       inkscape:connector-curvature="0"
       d="m 73.797054,19.085159 c -0.312098,2.356337 -2.329029,4.176907 -4.769893,4.176907 -2.318626,0 -4.256232,-1.637212 -4.713975,-3.819295 -1.698332,0.365414 -3.336845,0.890779 -4.901234,1.556587 0.858268,2.180783 0.01821,4.721778 -2.072849,5.928556 -1.940207,1.12095 -4.342059,0.738631 -5.844029,-0.788047 -1.05333,0.979206 -2.032536,2.040338 -2.920714,3.172993 1.869985,1.452555 2.427859,4.101484 1.210679,6.209443 -1.161264,2.01173 -3.555313,2.871299 -5.677577,2.17038 -0.50846,1.563089 -0.881676,3.188598 -1.101445,4.860921 2.438263,0.236674 4.34466,2.291317 4.34466,4.790699 0,2.355038 -1.69183,4.31215 -3.925929,4.730881 0.166452,0.747734 0.358912,1.485065 0.585183,2.210692 0.436937,-0.115736 0.884277,-0.169053 1.325115,-0.15865 1.626809,0.03641 3.1951,0.898582 4.067673,2.409655 1.187271,2.055943 0.684014,4.626848 -1.076737,6.098908 0.983108,1.293905 2.07805,2.498082 3.271824,3.596926 0.906384,-1.098844 2.239301,-1.716537 3.612531,-1.747747 0.851766,-0.01821 1.715236,0.18986 2.507184,0.646302 2.193787,1.266597 3.013043,4.002653 1.933705,6.249756 1.492868,0.618994 3.050755,1.107947 4.66196,1.455156 0.457743,-2.182083 2.395349,-3.819296 4.713975,-3.819296 2.440864,0 4.457795,1.82057 4.769893,4.176908 1.460357,-0.198962 2.883002,-0.50976 4.258833,-0.929791 -0.719125,-2.130067 0.137843,-4.543622 2.158675,-5.710087 0.719125,-0.41483 1.503271,-0.621595 2.279614,-0.642401 1.560488,-0.04031 3.092368,0.684014 4.042965,2.01563 1.388835,-1.050728 2.673637,-2.231498 3.836201,-3.522802 -1.668422,-1.487666 -2.123565,-3.990949 -0.962301,-6.002679 0.872573,-1.511073 2.440864,-2.373243 4.067673,-2.409654 0.648903,-0.0143 1.308209,0.102732 1.933705,0.361513 0.563076,-1.391435 1.013017,-2.841389 1.34202,-4.335557 -2.093655,-0.524064 -3.646341,-2.418757 -3.646341,-4.673663 0,-2.39795 1.75685,-4.387573 4.052068,-4.754288 -0.3186,-2.449966 -0.962301,-4.795901 -1.88559,-6.99749 -2.247103,1.075437 -4.979259,0.258781 -6.245855,-1.935005 -1.18337,-2.050742 -0.685314,-4.612544 1.065033,-6.087205 -1.050729,-1.131354 -2.195087,-2.176882 -3.422671,-3.117076 -1.475962,1.738644 -4.028661,2.232799 -6.074201,1.052029 -1.923302,-1.109247 -2.791974,-3.347247 -2.252305,-5.396689 -1.465559,-0.465545 -2.985734,-0.811454 -4.547523,-1.02342 z m -3.713963,17.392944 c 0.166453,0 0.331604,0.0039 0.495455,0.0117 0.659307,0.03381 1.301708,0.133942 1.918101,0.292592 0.154748,0.04031 0.308196,0.08323 0.460344,0.13004 0.301694,0.09493 0.596887,0.202864 0.885577,0.325102 0.144345,0.06112 0.28609,0.12744 0.426534,0.195061 0.07022,0.03381 0.141744,0.07022 0.210665,0.105333 0.0104,0.0052 0.01951,0.0117 0.02861,0.01691 0.09493,0.04812 0.188559,0.09883 0.280888,0.150847 0.101432,0.05722 0.201563,0.113135 0.300394,0.174254 0.265283,0.161251 0.524064,0.334205 0.772442,0.520163 0.09233,0.06892 0.185958,0.143045 0.275686,0.215868 0.05592,0.04421 0.113136,0.08713 0.167753,0.133942 0.07282,0.06112 0.143045,0.126139 0.214567,0.191159 0.135242,0.119638 0.266583,0.241876 0.394023,0.369316 0.08193,0.08193 0.161251,0.166452 0.240576,0.252279 l 0.0039,0.0039 c 0.03641,0.03901 0.07412,0.07802 0.109234,0.117037 0.09233,0.102732 0.180757,0.206765 0.267884,0.313398 0.02471,0.02991 0.04941,0.05982 0.07412,0.08973 0.07282,0.08973 0.145646,0.183357 0.214567,0.275686 0.08713,0.117037 0.170354,0.234074 0.252279,0.353711 0.114436,0.169053 0.224971,0.340707 0.329003,0.516262 0.05982,0.100131 0.115736,0.202863 0.170354,0.304295 0.149546,0.274386 0.284789,0.552673 0.407027,0.841363 0.05332,0.12744 0.106633,0.253579 0.154748,0.38232 0.0052,0.013 0.0065,0.02731 0.0117,0.04031 0.04291,0.117037 0.08323,0.235374 0.122238,0.353711 0.0052,0.01691 0.0104,0.03251 0.01561,0.04942 0.0156,0.04681 0.02731,0.09493 0.04161,0.141744 0.03511,0.115736 0.07022,0.231472 0.101432,0.349809 l 0.02341,0.09753 c 0.02081,0.08323 0.03901,0.167752 0.05722,0.252279 0.02341,0.102732 0.04551,0.206765 0.06502,0.312098 0.0013,0.0052 0.0039,0.0104 0.0039,0.0169 0.0026,0.0091 0.0026,0.01821 0.0039,0.02861 0.02211,0.120938 0.04421,0.241876 0.06112,0.365414 0.0013,0.0078 0.0039,0.01561 0.0039,0.02471 0.0039,0.02601 0.0052,0.05332 0.0091,0.08063 0.0143,0.113136 0.02991,0.226271 0.04031,0.342007 0.013,0.141745 0.02471,0.28609 0.03251,0.430435 0.0078,0.162551 0.0117,0.330303 0.0117,0.495455 0,0.332904 -0.0156,0.659306 -0.04811,0.983108 v 0.0039 c -0.01691,0.16125 -0.03641,0.3212 -0.06112,0.47985 v 0.0039 c -0.02471,0.15865 -0.05332,0.315999 -0.08583,0.472048 0,0.0013 0.0013,0.0026 0,0.0039 -0.01561,0.07803 -0.03381,0.154749 -0.05202,0.231473 -0.0182,0.07802 -0.03771,0.154748 -0.05722,0.231472 v 0.0039 c -0.03901,0.153448 -0.08323,0.305596 -0.13004,0.455143 v 0.0039 c -0.09363,0.301694 -0.202864,0.598187 -0.325102,0.886878 -0.122238,0.28869 -0.257481,0.566977 -0.407027,0.841363 0,0 0.0013,0.0026 0,0.0039 -0.148247,0.271785 -0.309497,0.535768 -0.482451,0.791948 -0.0013,0.0013 0,0.0026 0,0.0039 -0.08713,0.12744 -0.176856,0.250979 -0.269185,0.374517 0,0 0.0013,0.0026 0,0.0039 -0.09233,0.122238 -0.189859,0.243176 -0.28869,0.361513 0,0.0013 0.0013,0.0026 0,0.0039 -0.392723,0.475949 -0.83096,0.915487 -1.30821,1.308209 -0.477249,0.394024 -0.99221,0.743833 -1.539681,1.040326 -0.274386,0.149547 -0.556575,0.284789 -0.845265,0.407027 -0.28869,0.122239 -0.583883,0.230173 -0.885577,0.325102 -0.152148,0.04681 -0.305596,0.08973 -0.460344,0.130041 -0.616393,0.15865 -1.258794,0.258781 -1.918101,0.292591 -0.163851,0.0078 -0.329002,0.0117 -0.495455,0.0117 -0.166452,0 -0.330303,-0.0039 -0.495455,-0.0117 -0.658006,-0.03381 -1.300407,-0.133941 -1.9181,-0.292591 -0.154748,-0.04031 -0.308196,-0.08323 -0.459044,-0.130041 -0.302994,-0.09493 -0.596886,-0.202863 -0.885577,-0.325102 -0.289991,-0.122238 -0.572179,-0.25748 -0.845264,-0.407027 -0.137844,-0.07412 -0.270485,-0.154748 -0.403127,-0.235374 -0.132641,-0.08063 -0.265283,-0.165151 -0.394023,-0.252279 -0.12874,-0.08583 -0.253579,-0.175554 -0.378418,-0.267883 -0.247078,-0.185959 -0.486353,-0.38102 -0.715224,-0.589085 -0.113136,-0.104032 -0.22367,-0.211966 -0.332904,-0.3212 -0.109235,-0.109234 -0.215868,-0.218469 -0.321201,-0.332904 0,-0.0013 0.0013,-0.0039 0,-0.0039 -0.104032,-0.114436 -0.205464,-0.230172 -0.304295,-0.349809 -0.09883,-0.119638 -0.196362,-0.241876 -0.28869,-0.365415 -0.09233,-0.124839 -0.180757,-0.249678 -0.267884,-0.378418 -0.174255,-0.257481 -0.335505,-0.522764 -0.483752,-0.795849 -0.148246,-0.274386 -0.284789,-0.552673 -0.407027,-0.841363 0,-0.0013 0.0013,-0.0039 0,-0.0039 -0.05982,-0.144345 -0.120938,-0.28869 -0.174255,-0.435636 v -0.0039 c -0.05462,-0.148247 -0.102732,-0.295193 -0.150847,-0.44734 -0.04551,-0.146946 -0.08583,-0.295193 -0.124839,-0.44604 -0.0039,-0.0117 -0.0065,-0.02211 -0.0091,-0.03251 -0.03511,-0.137843 -0.06762,-0.279587 -0.09753,-0.418731 -0.0065,-0.03511 -0.013,-0.07022 -0.01951,-0.106633 -0.01951,-0.09883 -0.04031,-0.196362 -0.05722,-0.296493 -0.0078,-0.04942 -0.01691,-0.100132 -0.02471,-0.149547 0,-0.0039 0.0013,-0.0091 0,-0.013 -0.01951,-0.131341 -0.03511,-0.263983 -0.04812,-0.397925 -0.0026,-0.02341 -0.0065,-0.04551 -0.0091,-0.06892 -0.013,-0.136543 -0.02081,-0.275686 -0.02731,-0.41483 -0.0013,-0.0104 -0.0039,-0.02081 -0.0052,-0.03251 -0.0078,-0.163851 -0.0117,-0.329003 -0.0117,-0.495455 0,-0.166452 0.0039,-0.331604 0.0117,-0.495455 0.0091,-0.163852 0.02081,-0.326402 0.03771,-0.487653 0,-0.0013 -0.0013,-0.0026 0,-0.0039 0.01561,-0.161251 0.03641,-0.321201 0.05982,-0.47985 0.0013,-0.0013 0,-0.0026 0,-0.0039 0.02471,-0.158649 0.05462,-0.315998 0.08583,-0.472047 v -0.0039 c 0.03251,-0.156048 0.07022,-0.309496 0.109234,-0.462944 0.0013,-0.0013 0,-0.0026 0,-0.0039 0.04031,-0.153448 0.08453,-0.305595 0.130041,-0.455142 0.0013,-0.0013 0,-0.0026 0,-0.0039 0.04811,-0.152148 0.09623,-0.299094 0.150847,-0.44734 0.04031,-0.110535 0.08583,-0.22107 0.130041,-0.329003 0.0052,-0.013 0.0117,-0.02471 0.01691,-0.03641 0.02081,-0.05332 0.04161,-0.106633 0.06502,-0.158649 0.03511,-0.08063 0.07152,-0.15995 0.109234,-0.240576 0.02601,-0.05462 0.05072,-0.107933 0.07672,-0.162551 0.05852,-0.118337 0.119637,-0.236674 0.183357,-0.35371 v -0.0039 c 0.07412,-0.136543 0.150848,-0.269185 0.231473,-0.401826 0.08192,-0.133942 0.165151,-0.265283 0.252279,-0.394024 0.08583,-0.127439 0.175555,-0.250978 0.267884,-0.374517 0.0013,0 0,-0.0026 0,-0.0039 0.09233,-0.122238 0.191159,-0.243176 0.28869,-0.361513 0,-0.0013 -0.0013,-0.0026 0,-0.0039 0.09883,-0.119638 0.200263,-0.235374 0.304295,-0.34981 0.312098,-0.343307 0.646302,-0.663207 1.003914,-0.9584 0.47725,-0.394023 0.993511,-0.743833 1.540983,-1.040325 0.273085,-0.149547 0.555273,-0.28479 0.845264,-0.407028 0.288691,-0.122238 0.582583,-0.230172 0.885577,-0.325102 0.150848,-0.04681 0.304296,-0.08973 0.459044,-0.13004 0.617693,-0.15865 1.260094,-0.258781 1.9181,-0.292592 0.165152,-0.0078 0.329003,-0.0117 0.495455,-0.0117 z"
       style="fill:#671818;fill-opacity:1"
       id="path2274-0" /><path
       inkscape:connector-curvature="0"
       d="m 70.081791,23.883661 c -12.284945,0 -22.253865,9.972821 -22.253865,22.257766 0,12.284945 9.96892,22.253865 22.253865,22.253865 12.284945,0 22.256466,-9.96892 22.256466,-22.253865 0,-12.284945 -9.971521,-22.257766 -22.256466,-22.257766 z m 0.0039,12.594442 c 0.166452,0 0.330304,0.0039 0.495455,0.0117 0.658006,0.03381 1.300407,0.133942 1.918101,0.292592 0.154748,0.04031 0.308196,0.08323 0.459043,0.13004 0.302995,0.09493 0.596887,0.202864 0.885577,0.325102 0.434336,0.183358 0.849166,0.400526 1.248391,0.642401 0.265283,0.161251 0.524064,0.334205 0.772442,0.520163 0.371916,0.278287 0.724327,0.582582 1.052029,0.910285 0.655405,0.655405 1.215881,1.40574 1.66192,2.226297 0.148247,0.274386 0.284789,0.552673 0.407028,0.841363 0.427834,1.013017 0.689215,2.114462 0.747734,3.267923 0.0078,0.162551 0.0117,0.330303 0.0117,0.495455 0,0.332904 -0.0156,0.659306 -0.04941,0.983108 0,0.0013 0.0013,0.0026 0,0.0039 -0.01561,0.16125 -0.03641,0.3212 -0.05982,0.47985 -0.0013,0.0013 0,0.0026 0,0.0039 -0.02471,0.15865 -0.05462,0.315999 -0.08583,0.472048 v 0.0039 c -0.03251,0.156049 -0.07022,0.310798 -0.109234,0.462945 -0.0013,0.0013 0,0.0026 0,0.0039 -0.04031,0.153448 -0.08453,0.305596 -0.130041,0.455143 -0.0013,0.0013 0,0.0026 0,0.0039 -0.188559,0.604689 -0.435636,1.18077 -0.732129,1.728241 v 0.0039 c -0.148246,0.271785 -0.310797,0.535768 -0.483751,0.791948 0,0.0013 0.0013,0.0026 0,0.0039 -0.08583,0.12744 -0.175555,0.250979 -0.267884,0.374517 -0.0013,0 0,0.0026 0,0.0039 -0.09233,0.122238 -0.19116,0.243176 -0.28869,0.361513 0,0.0013 0.0013,0.0026 0,0.0039 -0.196362,0.237975 -0.404427,0.465546 -0.621595,0.682714 -0.110534,0.110534 -0.222369,0.215867 -0.336805,0.3212 -0.114436,0.104033 -0.230172,0.206765 -0.34981,0.304295 -0.477249,0.394024 -0.993511,0.743833 -1.540982,1.040326 -0.273085,0.149547 -0.555274,0.284789 -0.845265,0.407027 -0.28869,0.122239 -0.582582,0.230173 -0.885577,0.325102 -0.150847,0.04681 -0.304295,0.08973 -0.459043,0.130041 -0.617694,0.15865 -1.260095,0.258781 -1.918101,0.292591 -0.165151,0.0078 -0.329003,0.0117 -0.495455,0.0117 -0.166452,0 -0.331604,-0.0039 -0.495455,-0.0117 -0.659306,-0.03381 -1.301707,-0.133941 -1.9181,-0.292591 -0.154749,-0.04031 -0.308197,-0.08323 -0.460344,-0.130041 -0.301695,-0.09493 -0.596887,-0.202863 -0.885577,-0.325102 -0.433036,-0.183357 -0.849166,-0.400525 -1.247091,-0.642401 -0.265283,-0.16125 -0.524064,-0.334204 -0.772441,-0.520162 -0.496756,-0.371917 -0.953199,-0.789347 -1.369329,-1.247091 -0.104033,-0.114436 -0.206765,-0.230172 -0.304295,-0.349809 -0.394024,-0.47725 -0.743833,-0.992211 -1.040326,-1.539682 -0.149547,-0.274386 -0.284789,-0.552673 -0.407027,-0.841363 v -0.0039 c -0.06112,-0.144345 -0.120938,-0.28869 -0.174255,-0.435636 -0.0013,-0.0013 0,-0.0026 0,-0.0039 -0.05462,-0.148247 -0.104032,-0.295193 -0.150847,-0.44734 -0.235374,-0.756837 -0.381019,-1.552686 -0.422632,-2.377144 -0.0078,-0.163851 -0.0117,-0.329003 -0.0117,-0.495455 0,-0.334205 0.01561,-0.661907 0.04812,-0.987009 0.01691,-0.161251 0.03641,-0.321201 0.06112,-0.47985 v -0.0039 c 0.02471,-0.158649 0.05332,-0.315998 0.08583,-0.472047 0,-0.0013 -0.0013,-0.0026 0,-0.0039 0.03121,-0.156048 0.07022,-0.309496 0.109234,-0.462944 v -0.0039 c 0.03901,-0.153448 0.08323,-0.305595 0.130041,-0.455142 v -0.0039 c 0.04682,-0.152148 0.09623,-0.299094 0.150847,-0.44734 0.162551,-0.44474 0.356312,-0.872573 0.581282,-1.284802 0.07412,-0.136543 0.150847,-0.269185 0.231473,-0.401826 0.08062,-0.133942 0.163851,-0.265283 0.250978,-0.394024 0.08713,-0.127439 0.176855,-0.250978 0.269184,-0.374517 0,0 -0.0013,-0.0026 0,-0.0039 0.09103,-0.122238 0.18986,-0.243176 0.288691,-0.361513 0,-0.0013 -0.0013,-0.0026 0,-0.0039 0.09753,-0.119638 0.200262,-0.235374 0.304295,-0.34981 0.104033,-0.114436 0.208065,-0.22367 0.317299,-0.332904 0.109234,-0.110535 0.22237,-0.215868 0.336806,-0.321201 0.114435,-0.104032 0.230172,-0.206764 0.349809,-0.304295 0.47725,-0.394023 0.992211,-0.743833 1.539682,-1.040325 0.274386,-0.149547 0.556574,-0.28479 0.845265,-0.407028 0.28869,-0.122238 0.583882,-0.230172 0.885577,-0.325102 0.152147,-0.04681 0.305595,-0.08973 0.460344,-0.13004 0.616393,-0.15865 1.258794,-0.258781 1.9181,-0.292592 0.163851,-0.0078 0.329003,-0.0117 0.495455,-0.0117 z"
       style="opacity:0.79393999;fill:#a9a9a9"
       id="path2249-9" /><path
       inkscape:connector-curvature="0"
       d="m 70.081791,26.782268 c -10.685444,0 -19.356558,8.673715 -19.356558,19.359159 0,10.685444 8.671114,19.355258 19.356558,19.355258 10.685444,0 19.359159,-8.669814 19.359159,-19.355258 0,-10.685444 -8.673715,-19.359159 -19.359159,-19.359159 z m 0.0039,9.695835 c 5.331669,0 9.659423,4.331655 9.659423,9.663324 0,5.332969 -4.327754,9.659423 -9.659423,9.659423 -5.332969,0 -9.659423,-4.330355 -9.659423,-9.663324 0,-5.332969 4.326454,-9.659423 9.659423,-9.659423 z"
       style="opacity:0.79393999;fill:url(#radialGradient2340-9)"
       id="path2252-6" /><path
       inkscape:connector-curvature="0"
       d="m 388.88,274.48 c -60.1,0 -108.88,48.77 -108.88,108.86 0,60.09 48.78,108.89 108.88,108.89 60.09,0 108.87,-48.76 108.87,-108.85 v -0.04 c 0,-60.09 -48.78,-108.86 -108.87,-108.86 z m 0,24.66 c 46.57,0 84.37,37.74 84.37,84.24 0,46.5 -37.8,84.2 -84.37,84.2 -46.58,0 -84.38,-37.74 -84.38,-84.24 0,-46.5 37.8,-84.2 84.38,-84.2 z"
       transform="matrix(0.10884016,0,0,0.10868802,27.758225,4.4731357)"
       style="opacity:0.58788003;fill:#696969;filter:url(#filter3340-5-8)"
       id="path3318-3" /><path
       inkscape:connector-curvature="0"
       d="m 70.083091,34.563903 c -6.379796,0 -11.556717,5.184723 -11.556717,11.573623 0,6.388899 5.176921,11.577523 11.556717,11.577523 6.379797,0 11.558018,-5.184722 11.558018,-11.573622 v -0.0039 c 0,-6.3889 -5.178221,-11.573623 -11.558018,-11.573624 z m 0,2.621621 c 4.944148,0 8.957204,4.011756 8.957204,8.955903 0,4.944147 -4.013056,8.952002 -8.957204,8.952002 -4.944147,0 -8.955903,-4.011756 -8.955903,-8.955903 0,-4.944148 4.011756,-8.952002 8.955903,-8.952002 z"
       style="fill:#c0c0c0"
       id="path3313-8" /></g></svg>